<svg width="1893" height="3600" viewBox="0 0 1893 3600" fill="none" xmlns="http://www.w3.org/2000/svg">
<path d="M498.409 291.502C503.939 289.902 508.429 292.332 512.459 295.882C523.869 305.942 537.559 332.952 549.769 346.872C713.479 533.572 1059.37 451.112 1277.03 444.682C1393.71 441.242 1607.37 462.632 1654.23 591.602C1659.31 605.592 1667.16 631.062 1661.35 644.872C1659.72 648.742 1655.3 651.072 1654.49 655.442C1653.68 659.812 1656.29 663.962 1656.29 668.432C1656.3 683.842 1632.17 712.842 1620.67 723.202C1527.72 806.942 1295.66 782.082 1177.4 778.752C1051.9 775.212 926.909 771.962 801.109 769.312C655.079 766.232 409.029 744.462 304.139 869.052C227.999 959.492 313.979 1080.2 403.589 1119.04C723.949 1257.9 1101.41 1012.15 1437.76 1105.78C1579.39 1145.2 1716.13 1268.16 1666.21 1429.26C1625.22 1561.54 1465.71 1620.11 1341.75 1642.23C1139.25 1678.36 933.849 1650.9 730.279 1648.5C622.159 1647.22 458.569 1649.27 373.199 1723.42C281.029 1803.48 349.439 1896.88 438.159 1936.92C575.839 1999.06 812.429 1976.13 964.389 1973.15C1116.35 1970.17 1359.08 1946.45 1502.54 2006.73C1683.86 2082.92 1629.93 2248.31 1486.62 2330.52C1149.68 2523.8 598.019 2112.68 312.859 2465.6C259.179 2532.04 252.559 2598.49 275.839 2679.18C318.389 2826.65 501.099 2896.43 637.099 2926.37C899.469 2984.14 1232.14 2953.46 1445.06 3139.44C1480.32 3170.24 1516.53 3213.12 1528.49 3259.48C1531.79 3272.26 1539.59 3303.75 1521.86 3308.58C1503.52 3313.58 1499.22 3266.93 1495 3254.59C1459.01 3149.32 1314.89 3079.14 1215.74 3048.23C969.259 2971.4 691.059 3005.08 453.509 2895.01C303.589 2825.54 183.959 2686.09 256.249 2512.65C330.399 2334.78 538.129 2281.74 714.909 2287.87C952.569 2296.1 1273.29 2428.38 1490.91 2296.43C1530.07 2272.69 1547.51 2258.19 1568.83 2216.95C1650.77 2058.48 1465.96 2009.3 1348.08 1999.97C1136.15 1983.18 922.909 2005.66 711.059 2005.79C586.239 2005.87 385.509 1994.15 316.999 1869.97C242.179 1734.35 413.869 1649.84 521.559 1631.87C714.319 1599.69 923.639 1642.76 1119.82 1637.15C1273.07 1632.77 1544.34 1607.15 1628.32 1458.55C1698.51 1334.35 1628.17 1233 1519.71 1169.71C1334.54 1061.67 1059.61 1134.46 860.069 1167.99C674.679 1199.15 421.169 1223.38 290.889 1057.07C241.539 994.072 222.809 934.172 272.849 862.712C372.009 721.102 643.029 734.432 795.509 738.442C973.229 743.112 1151.13 754.382 1329 755.722C1410.83 756.342 1559.45 758.012 1615.77 687.602C1619.9 682.442 1635.64 657.702 1636.58 652.592C1637.36 648.362 1633.73 622.832 1632.59 617.102C1616.09 534.132 1510.5 497.562 1437.38 484.082C1150.42 431.212 745.279 610.652 522.889 358.392C513.949 348.252 488.519 316.662 489.379 303.752C489.639 299.822 494.629 292.582 498.389 291.492L498.409 291.502Z" fill="url(#paint0_linear_2799_4192)"/>
<g filter="url(#filter0_b_2799_4192)">
<path d="M498.815 291.502C504.345 289.902 508.835 292.332 512.865 295.882C524.275 305.942 537.965 332.952 550.175 346.872C713.885 533.572 1059.78 451.112 1277.44 444.682C1394.12 441.242 1607.78 462.632 1654.64 591.602C1659.72 605.592 1667.57 631.062 1661.76 644.872C1660.13 648.742 1655.71 651.072 1654.9 655.442C1654.09 659.812 1656.7 663.962 1656.7 668.432C1656.71 683.842 1632.58 712.842 1621.08 723.202C1528.13 806.942 1296.07 782.082 1177.81 778.752C1052.31 775.212 927.315 771.962 801.515 769.312C655.485 766.232 409.435 744.462 304.545 869.052C228.405 959.492 314.385 1080.2 403.995 1119.04C724.355 1257.9 1101.82 1012.15 1438.17 1105.78C1579.8 1145.2 1716.54 1268.16 1666.62 1429.26C1625.63 1561.54 1466.12 1620.11 1342.16 1642.23C1139.66 1678.36 934.255 1650.9 730.685 1648.5C622.565 1647.22 458.975 1649.27 373.605 1723.42C281.435 1803.48 349.845 1896.88 438.565 1936.92C576.245 1999.06 812.835 1976.13 964.795 1973.15C1116.76 1970.17 1359.49 1946.45 1502.95 2006.73C1684.27 2082.92 1630.34 2248.31 1487.03 2330.52C1150.09 2523.8 598.425 2112.68 313.265 2465.6C259.585 2532.04 252.965 2598.49 276.245 2679.18C318.795 2826.65 501.505 2896.43 637.505 2926.37C899.875 2984.14 1232.55 2953.46 1445.47 3139.44C1480.73 3170.24 1516.94 3213.12 1528.9 3259.48C1532.2 3272.26 1540 3303.75 1522.27 3308.58C1503.93 3313.58 1499.63 3266.93 1495.41 3254.59C1459.42 3149.32 1315.3 3079.14 1216.15 3048.23C969.665 2971.4 691.465 3005.08 453.915 2895.01C303.995 2825.54 184.365 2686.09 256.655 2512.65C330.805 2334.78 538.535 2281.74 715.315 2287.87C952.975 2296.1 1273.7 2428.38 1491.32 2296.43C1530.48 2272.69 1547.92 2258.19 1569.24 2216.95C1651.18 2058.48 1466.37 2009.3 1348.49 1999.97C1136.56 1983.18 923.315 2005.66 711.465 2005.79C586.645 2005.87 385.915 1994.15 317.405 1869.97C242.585 1734.35 414.275 1649.84 521.965 1631.87C714.725 1599.69 924.045 1642.76 1120.23 1637.15C1273.48 1632.77 1544.75 1607.15 1628.73 1458.55C1698.92 1334.35 1628.58 1233 1520.12 1169.71C1334.95 1061.67 1060.02 1134.46 860.475 1167.99C675.085 1199.15 421.575 1223.38 291.295 1057.07C241.945 994.072 223.215 934.172 273.255 862.712C372.415 721.102 643.435 734.432 795.915 738.442C973.635 743.112 1151.54 754.382 1329.41 755.722C1411.24 756.342 1559.86 758.012 1616.18 687.602C1620.31 682.442 1636.05 657.702 1636.99 652.592C1637.77 648.362 1634.14 622.832 1633 617.102C1616.5 534.132 1510.91 497.562 1437.79 484.082C1150.83 431.212 745.685 610.652 523.295 358.392C514.355 348.252 488.925 316.662 489.785 303.752C490.045 299.822 495.035 292.582 498.795 291.492L498.815 291.502Z" fill="white" fill-opacity="0.08"/>
</g>
<defs>
<filter id="filter0_b_2799_4192" x="181" y="237" width="1550.11" height="3125.96" filterUnits="userSpaceOnUse" color-interpolation-filters="sRGB">
<feFlood flood-opacity="0" result="BackgroundImageFix"/>
<feGaussianBlur in="BackgroundImageFix" stdDeviation="27"/>
<feComposite in2="SourceAlpha" operator="in" result="effect1_backgroundBlur_2799_4192"/>
<feBlend mode="normal" in="SourceGraphic" in2="effect1_backgroundBlur_2799_4192" result="shape"/>
</filter>
<linearGradient id="paint0_linear_2799_4192" x1="956.35" y1="80.8297" x2="955.65" y2="3308.96" gradientUnits="userSpaceOnUse">
<stop offset="0.0419835" stop-color="#42AC51"/>
<stop offset="0.108875" stop-color="#B0CD1A"/>
<stop offset="0.182294" stop-color="#019ACC"/>
<stop offset="0.229609" stop-color="#2C2982"/>
<stop offset="0.295" stop-color="#B80B79"/>
<stop offset="0.415994" stop-color="#9D2924"/>
<stop offset="0.482042" stop-color="#EA5C50"/>
<stop offset="0.530967" stop-color="#E4A16B"/>
<stop offset="0.627596" stop-color="#80B2BD"/>
<stop offset="0.689976" stop-color="#D88BD3"/>
<stop offset="0.758471" stop-color="#595FB3"/>
<stop offset="0.822074" stop-color="#BF278C"/>
<stop offset="0.880784" stop-color="#74BCD3"/>
<stop offset="0.950505" stop-color="#5B75CA"/>
<stop offset="1" stop-color="#948EE8"/>
</linearGradient>
</defs>
</svg>
