<svg width="2437" height="5027" viewBox="0 0 2437 5027" fill="none" xmlns="http://www.w3.org/2000/svg">
<path d="M446.056 1.51678C455.397 -1.14781 462.982 2.89905 469.789 8.81109C489.063 25.5646 512.188 70.5463 532.813 93.7281C809.35 404.651 1393.62 267.326 1761.29 256.618C1958.39 250.889 2319.3 286.511 2398.45 501.293C2407.04 524.592 2414 566 2410.48 590.007C2409 597 2406.9 603.181 2404.92 613.681C2403.55 620.958 2401.93 621.799 2401.93 629.243C2401.95 654.906 2361.19 703.202 2341.77 720.455C2184.76 859.913 1792.76 818.512 1593 812.966C1381.01 807.071 1169.87 801.658 957.373 797.245C710.701 792.116 295.076 755.861 117.897 963.349C-10.7179 1113.96 134.519 1314.99 285.887 1379.67C827.036 1610.93 1464.64 1201.66 2032.8 1357.59C2272.04 1423.24 2503.02 1628.01 2418.69 1896.3C2349.45 2116.6 2080.01 2214.14 1870.62 2250.98C1528.56 2311.15 1181.6 2265.42 837.728 2261.42C655.093 2259.29 378.759 2262.7 234.552 2386.19C78.8598 2519.52 194.417 2675.06 344.282 2741.74C576.85 2845.23 976.495 2807.04 1233.18 2802.08C1489.87 2797.12 1899.89 2757.61 2142.22 2858C2448.51 2984.89 2357.41 3260.32 2115.33 3397.23C1546.17 3719.11 614.316 3034.45 132.627 3622.19C41.951 3732.83 30.7686 3843.5 70.0929 3977.88C141.968 4223.47 450.6 4339.68 680.329 4389.54C1123.52 4485.75 1685.47 4434.65 2045.13 4744.38C2104.69 4795.67 2165.85 4867.08 2186.06 4944.29C2191.63 4965.57 2204.81 5018.01 2174.86 5026.06C2143.88 5034.39 2136.61 4956.7 2129.49 4936.15C2068.69 4760.83 1825.25 4643.96 1657.76 4592.48C1241.41 4464.53 771.478 4520.62 370.211 4337.31C116.968 4221.62 -85.1098 3989.38 37.0017 3700.54C162.255 3404.33 513.15 3315.99 811.765 3326.2C1213.22 3339.91 1754.98 3560.2 2122.58 3340.46C2188.73 3300.92 2218.18 3276.77 2254.2 3208.1C2392.61 2944.19 2080.43 2862.28 1881.31 2846.74C1523.32 2818.78 1163.12 2856.22 805.262 2856.44C594.417 2856.57 255.346 2837.05 139.62 2630.25C13.2348 2404.39 303.252 2263.65 485.161 2233.72C810.769 2180.13 1164.35 2251.86 1495.73 2242.52C1754.6 2235.22 2212.83 2192.55 2354.69 1945.08C2473.25 1738.24 2354.43 1569.46 2171.23 1464.06C1858.44 1284.13 1394.03 1405.35 1056.97 1461.19C743.809 1513.09 315.583 1553.44 95.5152 1276.47C12.1537 1171.55 -19.4848 1071.8 65.0422 952.79C232.542 716.958 690.346 739.157 947.914 745.835C1248.12 753.613 1548.62 772.381 1849.08 774.613C1987.31 775.645 2238.35 778.426 2333.49 661.168C2340.47 652.575 2367.05 611.374 2368.64 602.864C2369.96 595.819 2363.83 553.302 2361.9 543.76C2334.03 405.585 2155.67 344.682 2032.15 322.233C1547.42 234.185 863.066 533.017 487.407 112.913C472.306 96.0263 429.35 43.4173 430.802 21.9175C431.242 15.3726 439.671 3.3154 446.022 1.50016L446.056 1.51678Z" fill="url(#paint0_angular_2834_4237)"/>
<defs>
<radialGradient id="paint0_angular_2834_4237" cx="0" cy="0" r="1" gradientUnits="userSpaceOnUse" gradientTransform="translate(1217.56 2337.99) rotate(-90) scale(2962 3004.37)">
<stop offset="0.06" stop-color="#595FB3"/>
<stop offset="0.265" stop-color="#BE288C"/>
<stop offset="0.515" stop-color="#74BCD3"/>
<stop offset="0.76" stop-color="#5B75CA"/>
<stop offset="0.96" stop-color="#948EE8"/>
</radialGradient>
</defs>
</svg>
