<svg width="206" height="22" viewBox="0 0 206 22" fill="none" xmlns="http://www.w3.org/2000/svg">
<path d="M11.9488 15.5051C10.6836 16.7756 8.7397 17.2933 6.7014 17.2933C4.9444 17.2933 3.0929 16.823 1.7334 15.5762C0.749598 14.6811 0 13.2703 0 11.6935H3.0929C3.0929 12.5175 3.4687 13.2466 3.9606 13.7406C4.663 14.446 5.7885 14.6337 6.7486 14.6337C7.8957 14.6337 8.9975 14.3985 9.631 13.7406C10.0049 13.3414 10.2862 12.9403 10.2862 12.1401C10.2862 10.917 9.3497 10.3519 8.3187 10.1641C7.1952 9.9507 5.7412 9.9053 4.6414 9.7176C2.3453 9.3402 0.425003 7.8345 0.425003 5.0584C0.425003 3.7404 1.0113 2.6339 1.877 1.7645C2.9788 0.681703 4.8067 0 6.7506 0C8.5312 0 10.2646 0.565099 11.39 1.6242C12.3738 2.5647 13.0525 3.7878 13.0762 5.1769H9.9832C9.9596 4.5881 9.6546 3.9518 9.2572 3.531C8.7181 2.9659 7.6163 2.6359 6.727 2.6359C5.7904 2.6359 4.7122 2.8473 4.0334 3.5547C3.6812 3.9301 3.4707 4.3549 3.4707 4.9655C3.4707 6.0483 4.1731 6.6134 5.1569 6.7774C6.2115 6.9414 7.6871 7.06 8.7653 7.2022C11.2483 7.554 13.3339 9.1782 13.3339 12.0255C13.3319 13.5766 12.7692 14.6811 11.9488 15.5051Z" fill="black"/>
<path d="M37.253 3.859C36.598 3.1536 35.591 2.7525 34.629 2.7525C33.668 2.7525 32.661 3.1536 32.004 3.859C30.8548 5.0584 30.8096 7.1311 30.8096 8.6585C30.8096 10.1879 30.8568 12.2349 32.004 13.4343C32.659 14.1397 33.666 14.5408 34.629 14.5408C35.589 14.5408 36.596 14.1397 37.253 13.4343C38.402 12.2349 38.447 10.1879 38.447 8.6585C38.447 7.1291 38.402 5.0584 37.253 3.859ZM39.41 15.4122C38.144 16.6827 36.411 17.2953 34.63 17.2953C32.85 17.2953 31.1165 16.6827 29.8514 15.4122C28.0472 13.6003 27.7422 11.3892 27.7422 8.6585C27.7422 5.9297 28.0472 3.695 29.8514 1.8831C31.1165 0.612502 32.85 0 34.63 0C36.411 0 38.144 0.612502 39.41 1.8831C41.214 3.695 41.519 5.9297 41.519 8.6585C41.517 11.3892 41.214 13.6003 39.41 15.4122Z" fill="black"/>
<path d="M63.1448 17.2937C58.8578 17.2937 56.6328 14.5649 56.6328 10.5874V0.304688H59.6548V10.54C59.6548 12.917 60.7328 14.5392 63.1448 14.5392C65.5568 14.5392 66.6358 12.915 66.6358 10.54V0.304688H69.6578V10.5874C69.6578 14.5649 67.4328 17.2937 63.1448 17.2937Z" fill="black"/>
<path d="M88.7791 21.7452C87.2091 21.7452 86.0621 21.2275 85.2411 20.3798C84.2571 19.3681 83.7891 18.0028 83.7891 16.1908H86.7191C86.7191 17.0148 86.8111 17.8625 87.3291 18.4256C87.6571 18.7793 88.1731 19.0381 88.7811 19.0381C90.1401 19.0381 90.7951 18.145 90.7951 16.7797V3.48172L86.2461 3.49162L88.7671 0.328125H93.8181V16.5465C93.8161 19.6981 91.9641 21.7452 88.7791 21.7452Z" fill="black"/>
<path d="M115.021 4.02338L112.654 11.0577H117.386L115.021 4.02338ZM119.403 16.9874L118.325 13.7884H111.718L110.639 16.9874H107.594L113.427 0.304688H116.731L122.565 16.9874H119.403Z" fill="black"/>
<path d="M147.332 16.9854L140.139 5.52699V16.9854H137.164V0.304688H140.373L147.472 11.5971V0.304688H150.449V16.9854H147.332Z" fill="black"/>
<path d="M173.857 10.5874V21.208H170.812V10.5874L165.047 0.304688H168.329L172.427 7.50298L176.527 0.304688H179.668L173.857 10.5874Z" fill="black"/>
<path d="M198.459 4.02139L200.824 11.0557H196.092L198.459 4.02139ZM196.865 0.304688L191.031 16.9874H194.077L195.155 13.7884H201.762L202.84 16.9874H206.002L200.168 0.304688H196.865Z" fill="black"/>
</svg>
