<svg width="342" height="168" viewBox="0 0 342 168" fill="none" xmlns="http://www.w3.org/2000/svg">
<path d="M79.9488 88.5051C78.6836 89.7756 76.7397 90.2933 74.7014 90.2933C72.9444 90.2933 71.0929 89.823 69.7334 88.5762C68.7496 87.6811 68 86.2703 68 84.6935H71.0929C71.0929 85.5175 71.4687 86.2466 71.9606 86.7406C72.663 87.446 73.7885 87.6337 74.7486 87.6337C75.8957 87.6337 76.9975 87.3985 77.631 86.7406C78.0049 86.3414 78.2862 85.9403 78.2862 85.1401C78.2862 83.917 77.3497 83.3519 76.3187 83.1641C75.1952 82.9507 73.7412 82.9053 72.6414 82.7176C70.3453 82.3402 68.425 80.8345 68.425 78.0584C68.425 76.7404 69.0113 75.6339 69.877 74.7645C70.9788 73.6817 72.8067 73 74.7506 73C76.5312 73 78.2646 73.5651 79.39 74.6242C80.3738 75.5647 81.0525 76.7878 81.0762 78.1769H77.9832C77.9596 77.5881 77.6546 76.9518 77.2572 76.531C76.7181 75.9659 75.6163 75.6359 74.727 75.6359C73.7904 75.6359 72.7122 75.8473 72.0334 76.5547C71.6812 76.9301 71.4707 77.3549 71.4707 77.9655C71.4707 79.0483 72.1731 79.6134 73.1569 79.7774C74.2115 79.9414 75.6871 80.06 76.7653 80.2022C79.2483 80.554 81.3339 82.1782 81.3339 85.0255C81.3319 86.5766 80.7692 87.6811 79.9488 88.5051Z" fill="white"/>
<path d="M105.253 76.859C104.598 76.1536 103.591 75.7525 102.629 75.7525C101.668 75.7525 100.661 76.1536 100.004 76.859C98.8548 78.0584 98.8096 80.1311 98.8096 81.6585C98.8096 83.1879 98.8568 85.2349 100.004 86.4343C100.659 87.1397 101.666 87.5408 102.629 87.5408C103.589 87.5408 104.596 87.1397 105.253 86.4343C106.402 85.2349 106.447 83.1879 106.447 81.6585C106.447 80.1291 106.402 78.0584 105.253 76.859ZM107.41 88.4122C106.144 89.6827 104.411 90.2953 102.63 90.2953C100.85 90.2953 99.1165 89.6827 97.8514 88.4122C96.0472 86.6003 95.7422 84.3892 95.7422 81.6585C95.7422 78.9297 96.0472 76.695 97.8514 74.8831C99.1165 73.6125 100.85 73 102.63 73C104.411 73 106.144 73.6125 107.41 74.8831C109.214 76.695 109.519 78.9297 109.519 81.6585C109.517 84.3892 109.214 86.6003 107.41 88.4122Z" fill="white"/>
<path d="M131.145 90.2937C126.858 90.2937 124.633 87.5649 124.633 83.5874V73.3047H127.655V83.54C127.655 85.917 128.733 87.5392 131.145 87.5392C133.557 87.5392 134.636 85.915 134.636 83.54V73.3047H137.658V83.5874C137.658 87.5649 135.433 90.2937 131.145 90.2937Z" fill="white"/>
<path d="M156.779 94.7452C155.209 94.7452 154.062 94.2275 153.241 93.3798C152.257 92.3681 151.789 91.0028 151.789 89.1908H154.719C154.719 90.0148 154.811 90.8625 155.329 91.4256C155.657 91.7793 156.173 92.0381 156.781 92.0381C158.14 92.0381 158.795 91.145 158.795 89.7797V76.4817L154.246 76.4916L156.767 73.3281H161.818V89.5465C161.816 92.6981 159.964 94.7452 156.779 94.7452Z" fill="white"/>
<path d="M183.021 77.0234L180.654 84.0577H185.386L183.021 77.0234ZM187.403 89.9874L186.325 86.7884H179.718L178.639 89.9874H175.594L181.427 73.3047H184.731L190.565 89.9874H187.403Z" fill="white"/>
<path d="M215.332 89.9854L208.139 78.527V89.9854H205.164V73.3047H208.373L215.472 84.5971V73.3047H218.449V89.9854H215.332Z" fill="white"/>
<path d="M241.857 83.5874V94.208H238.812V83.5874L233.047 73.3047H236.329L240.427 80.503L244.527 73.3047H247.668L241.857 83.5874Z" fill="white"/>
<path d="M266.459 77.0214L268.824 84.0557H264.092L266.459 77.0214ZM264.865 73.3047L259.031 89.9874H262.077L263.155 86.7884H269.762L270.84 89.9874H274.002L268.168 73.3047H264.865Z" fill="white"/>
</svg>
